<svg width="48" height="46" viewBox="0 0 48 46" fill="none" xmlns="http://www.w3.org/2000/svg">
<path d="M0 21.9247H8.43254V45.5358H0V21.9247Z" fill="#F24C27"/>
<path d="M35.4167 45.5357H11.8056V20.5703L16.9359 12.8748L18.361 2.89573C18.4792 2.09343 18.8811 1.36009 19.4938 0.828795C20.1065 0.297495 20.8893 0.00344256 21.7003 0H21.9246C23.2661 0.00133945 24.5522 0.534825 25.5007 1.48338C26.4493 2.43193 26.9828 3.71807 26.9841 5.05952V15.1786H40.4762C42.2647 15.1808 43.9792 15.8923 45.2439 17.1569C46.5085 18.4215 47.22 20.1361 47.2222 21.9246V33.7302C47.2187 36.8601 45.9737 39.8608 43.7605 42.074C41.5473 44.2872 38.5466 45.5321 35.4167 45.5357V45.5357Z" fill="#F24C27"/>
</svg>
