<svg width="54" height="54" viewBox="0 0 54 54" fill="none" xmlns="http://www.w3.org/2000/svg">
<g clip-path="url(#clip0_1_248)">
<path d="M27 0C15.6156 0 6.35284 9.26271 6.35284 20.6472V39.7057C6.35284 42.3333 8.49023 44.4707 11.1175 44.4707C13.7451 44.4707 15.8825 42.3333 15.8825 39.7057V23.8236C15.8825 21.1963 13.7451 19.0589 11.1175 19.0589C10.5827 19.0589 10.0768 19.1673 9.59601 19.3304C10.2737 10.3116 17.8123 3.17642 27 3.17642C36.1828 3.17642 43.7193 10.305 44.4032 19.3177C43.9253 19.1541 43.4165 19.0589 42.8825 19.0589C40.2549 19.0589 38.1175 21.1963 38.1175 23.8236V39.7057C38.1175 42.3333 40.2549 44.4707 42.8825 44.4707C43.442 44.4707 43.9714 44.3562 44.4707 44.1782V46.0589C44.4707 46.9352 43.7572 47.6472 42.8825 47.6472H31.4721C30.8142 45.8023 29.0678 44.4707 27 44.4707C24.3728 44.4707 22.2354 46.6081 22.2354 49.2354C22.2354 51.8626 24.3728 54 27 54C29.0678 54 30.8142 52.668 31.4721 50.8236H42.8825C45.5098 50.8236 47.6472 48.6862 47.6472 46.0589C47.6472 36.5058 47.6472 30.2106 47.6472 20.6472C47.6472 9.26271 38.3844 0 27 0V0Z" fill="#F24C27"/>
<path d="M50.8236 22.5278V41.0013C52.668 40.3438 54 38.5974 54 36.5292V27C54 24.9322 52.668 23.1858 50.8236 22.5278V22.5278Z" fill="#F24C27"/>
<path d="M0 27V36.5292C0 38.5974 1.33195 40.3438 3.17642 41.0013V22.5278C1.33195 23.1858 0 24.9322 0 27Z" fill="#F24C27"/>
</g>
<defs>
<clipPath id="clip0_1_248">
<rect width="54" height="54" fill="white"/>
</clipPath>
</defs>
</svg>
