<svg width="93" height="28" viewBox="0 0 93 28" fill="none" xmlns="http://www.w3.org/2000/svg">
<path d="M9.485 9.36232C7.525 9.36232 5.88 10.0623 4.725 11.2173V0.822324H0V27.0723H4.725V16.9923C4.725 14.9973 6.09 13.6323 8.015 13.6323C9.94 13.6323 11.235 14.9623 11.235 16.9923V27.0723H15.925V16.3273C15.925 12.1623 13.44 9.36232 9.485 9.36232Z" fill="black"/>
<path d="M22.8186 0.507324C21.1386 0.507324 19.8086 1.76732 19.8086 3.44733C19.8086 5.09233 21.1386 6.35233 22.8186 6.35233C24.4986 6.35233 25.8636 5.09233 25.8636 3.44733C25.8636 1.76732 24.4986 0.507324 22.8186 0.507324ZM25.1986 9.74732H20.4736V27.0723H25.1986V9.74732Z" fill="black"/>
<path d="M42.473 0.822324V11.4273C41.2831 10.0973 39.4631 9.36232 37.293 9.36232C32.393 9.36232 28.893 13.2123 28.893 18.4273C28.893 23.6423 32.393 27.4923 37.293 27.4923C39.708 27.4923 41.668 26.5473 42.858 24.9023V27.0723H47.198V0.822324H42.473ZM38.168 23.1873C35.683 23.1873 33.688 21.3323 33.688 18.3923C33.688 15.4523 35.718 13.6323 38.168 13.6323C40.3381 13.6323 42.543 15.1373 42.543 18.4273C42.543 21.7523 40.3381 23.1873 38.168 23.1873Z" fill="black"/>
<path d="M68.1248 17.4123C68.1248 12.9323 64.8348 9.36232 59.9698 9.36232C54.8598 9.36232 50.9048 13.3173 50.9048 18.4273C50.9048 23.5373 54.8948 27.4923 60.3898 27.4923C63.0498 27.4923 65.3598 26.5473 67.3198 24.9023L65.3598 21.6823C63.9598 22.7673 62.4198 23.4323 60.5298 23.4323C58.0448 23.4323 56.2248 22.2073 55.6298 20.0023H67.8098C67.9498 19.4073 68.1248 18.3923 68.1248 17.4123ZM59.7948 13.1773C61.7898 13.1773 63.5048 14.4723 63.5398 16.6773H55.6298C56.1898 14.5073 57.7998 13.1773 59.7948 13.1773Z" fill="black"/>
<path d="M74.1565 0.507324C72.4765 0.507324 71.1465 1.76732 71.1465 3.44733C71.1465 5.09233 72.4765 6.35233 74.1565 6.35233C75.8365 6.35233 77.2015 5.09233 77.2015 3.44733C77.2015 1.76732 75.8365 0.507324 74.1565 0.507324ZM76.5365 9.74732H71.8115V27.0723H76.5365V9.74732Z" fill="black"/>
<path d="M90.1009 23.2573C87.9309 23.2573 86.8809 22.5573 86.8809 20.5623V13.7373H91.7809V9.74732H86.8809V5.37233H82.1559V9.74732H79.4259V13.7373H82.1559V20.9823C82.1559 25.4273 84.8159 27.4923 89.0859 27.4923C90.3109 27.4923 91.3609 27.3173 92.3409 27.0723V23.1173C91.4309 23.1873 90.6609 23.2573 90.1009 23.2573Z" fill="black"/>
</svg>
